<?xml version="1.0" ?><svg style="enable-background:new 0 0 24 24;" version="1.1" viewBox="0 0 24 24" xml:space="preserve" xmlns="http://www.w3.org/2000/svg" xmlns:xlink="http://www.w3.org/1999/xlink"><g id="info"/><g id="icons"><g id="time"><path d="M12,0C5.4,0,0,5.4,0,12c0,6.6,5.4,12,12,12s12-5.4,12-12C24,5.4,18.6,0,12,0z M12,21c-5,0-9-4-9-9c0-5,4-9,9-9s9,4,9,9    C21,17,17,21,12,21z"/><path d="M14,11.2V7c0-1.1-0.9-2-2-2s-2,0.9-2,2v5c0,0.5,0.2,1,0.6,1.4l3,3C14,16.8,14.5,17,15,17s1-0.2,1.4-0.6    c0.8-0.8,0.8-2,0-2.8L14,11.2z"/></g></g></svg>