<?xml version="1.0" ?><svg style="enable-background:new 0 0 24 24;" version="1.1" viewBox="0 0 24 24" xml:space="preserve" xmlns="http://www.w3.org/2000/svg" xmlns:xlink="http://www.w3.org/1999/xlink"><g id="info"/><g id="icons"><g id="delete"><path d="M18.9,8H5.1c-0.6,0-1.1,0.5-1,1.1l1.6,13.1c0.1,1,1,1.7,2,1.7h8.5c1,0,1.9-0.7,2-1.7l1.6-13.1C19.9,8.5,19.5,8,18.9,8z"/><path d="M20,2h-5l0,0c0-1.1-0.9-2-2-2h-2C9.9,0,9,0.9,9,2l0,0H4C2.9,2,2,2.9,2,4v1c0,0.6,0.4,1,1,1h18c0.6,0,1-0.4,1-1V4    C22,2.9,21.1,2,20,2z"/></g></g></svg>